<svg width="24" height="24">
  <path d="M15.93 11.52c.85-1 1.35-2.25 1.35-3.6s-.5-2.6-1.35-3.6l1.57-1.44c1.26 1.37 2.02 3.12 2.02 5.04s-.76 3.66-2.02 5.04l-1.57-1.44zm-11-10.08L3.37 0C1.28 2.11 0 4.88 0 7.92s1.28 5.8 3.36 7.91l1.58-1.44c-1.68-1.75-2.7-4-2.7-6.47s1.02-4.73 2.7-6.48zM6.5 12.96l1.57-1.44c-.85-1-1.35-2.25-1.35-3.6s.5-2.6 1.35-3.6L6.5 2.87C5.24 4.25 4.48 6 4.48 7.92s.76 3.66 2.02 5.04zM20.63 0l-1.57 1.44c1.68 1.75 2.7 4 2.7 6.48s-1.02 4.72-2.7 6.47l1.58 1.44C22.72 13.72 24 10.95 24 7.92S22.72 2.12 20.63 0zm-2.55 24h-2.15c-.85-2.2-2.26-3.07-3.93-3.07-1.7 0-3.09.89-3.93 3.07H5.96L11 10.73a3 3 0 114-2.81 3 3 0 01-2 2.81L18.08 24zM12 13.79L11.15 16h1.7L12 13.79zM14 19l-.38-1h-3.24l-.39 1h4.02z"/>
</svg>