<svg width="40" height="40" viewBox="0 0 40 40" xmlns="http://www.w3.org/2000/svg"><g fill="none" fill-rule="evenodd"><circle fill="#F97317" cx="20" cy="20" r="20"/><g fill-rule="nonzero"><path d="M20 2.105c9.868 0 17.895 8.027 17.895 17.895S29.868 37.895 20 37.895 2.105 29.868 2.105 20 10.132 2.105 20 2.105M20 0C8.954 0 0 8.954 0 20s8.954 20 20 20 20-8.954 20-20S31.046 0 20 0Z" fill="#FFF7EC" opacity=".5"/><path d="M20.01 8.43c6.381 0 11.579 5.195 11.579 11.58 0 6.381-5.198 11.579-11.58 11.579-6.384 0-11.578-5.198-11.578-11.58 0-6.384 5.194-11.578 11.579-11.578m0-2.105c-7.56 0-13.684 6.125-13.684 13.684 0 7.556 6.125 13.684 13.684 13.684 7.556 0 13.684-6.128 13.684-13.684 0-7.56-6.128-13.684-13.684-13.684Z" fill="#FFF6EC" opacity=".7"/><path d="M20.01 14.747a5.268 5.268 0 0 1 5.263 5.263 5.27 5.27 0 0 1-5.263 5.263 5.268 5.268 0 0 1-5.263-5.263 5.266 5.266 0 0 1 5.263-5.263m0-2.106a7.365 7.365 0 0 0-7.369 7.369 7.369 7.369 0 1 0 7.368-7.368Z" fill="#FFF7ED" opacity=".9"/><path d="M25.625 39.474 20 24.849l-5.625 14.625h-3.477l7.697-18.734-.069-.19a1.62 1.62 0 0 1-.105-.55 1.58 1.58 0 0 1 3.158 0c0 .18-.036.372-.109.556l-.072.194 7.704 18.724h-3.477Z" fill="#FFF7ED"/><path d="M20 18.947c.579 0 1.053.474 1.053 1.053 0 .118-.023.24-.073.372l-.148.388.158.385 7.326 17.802h-2.33l-5.002-13.01L20 23.382l-.984 2.555-5.003 13.01h-2.329l7.323-17.815.157-.382-.144-.388a.997.997 0 0 1-.073-.362c0-.579.474-1.053 1.053-1.053m0-1.052c-1.164 0-2.105.94-2.105 2.105 0 .257.052.503.138.73L10.115 40h4.622L20 26.316 25.263 40h4.622l-7.921-19.257c.089-.23.141-.48.141-.743 0-1.164-.94-2.105-2.105-2.105Z" fill="#FA7316"/></g></g></svg>